<mxfile host="app.diagrams.net" modified="2023-11-29T13:14:33.259Z" agent="Mozilla/5.0 (Macintosh; Intel Mac OS X 10_15_7) AppleWebKit/537.36 (KHTML, like Gecko) Chrome/119.0.0.0 Safari/537.36" version="22.1.4" etag="cveWGwyK4ZaAB3His5IG" type="github">
  <diagram name="Page-1" id="FvOn6TGWqu2laH2XPcP0">
    <mxGraphModel>
      <root>
        <mxCell id="0" />
        <mxCell id="1" parent="0" />
      </root>
    </mxGraphModel>
  </diagram>
</mxfile>
